<svg version="1.2" xmlns="http://www.w3.org/2000/svg" viewBox="0 0 3000 3000" width="3000" height="3000">
	<title>forgotpic-svg</title>
	<defs>
		<clipPath clipPathUnits="userSpaceOnUse" id="cp1">
			<path d=""/>
		</clipPath>
		<clipPath clipPathUnits="userSpaceOnUse" id="cp2">
			<path d="m2471.68 1034.51c7.74-26.79 2.44-55.67-14.32-77.96-16.77-22.3-43.03-35.41-70.93-35.41-192.76 0-568.96 0-721.56 0-39.51 0-74.26 26.12-85.24 64.08-79.48 274.81-387.5 1339.83-387.5 1339.83 227.93-50.71 461.85-95.74 843.41-127.62 39.25-3.28 71.82-6.16 108.3-28.85 0 0 238.96-826.62 327.84-1134.07z"/>
		</clipPath>
		<clipPath clipPathUnits="userSpaceOnUse" id="cp3">
			<path d="m710 1636h308v375h-308z"/>
		</clipPath>
		<clipPath clipPathUnits="userSpaceOnUse" id="cp4">
			<path d="m596.86 1948.09c3.05-4.18-0.76-21.1-1.05-26.02-1.32-21.98-2.81-44.23-1.85-66.26-1.14-0.63 1.17-7.19 1.37-8.21 1.61-8.19 2.6-16.48 3.06-24.82 1.26-22.67 0.65-44.09-5.03-66.09-24.17-93.63-41.54-185.48-17.32-281.41 7.57-29.96 22.87-80.29 52.54-97.15 19.27-10.95 47.19 10.79 63.14 19.33 43.75 23.42 90.39 49.43 140.24 56.35 8.71 1.22 17.55 1.55 26.33 1.06 6.14-0.35 12.51-1.12 18.16-3.71 4.62-2.12 8.1-5.41 10.72-9.74 2.31-3.84 3.56-8.14 3.85-12.6 0.19-2.98 0.12-6.13-0.41-9.08-1.11-6.21-9.11-17.1-13.07-6.33-2.23 6.07-0.74 12.51 1.42 18.33-17.85 14.09-43.32 11.55-64.12 5.7-38.62-10.86-72.72-31.04-108.39-48.62-11.47-5.65-23.56-10.69-35.89-14.16-6.22-1.76-15.81-1.95-20.24-7.44-6.36-7.9-4.99-22.23-4.18-31.57 0.54-6.24 1.36-12.93 3.59-18.84 3.09-8.19 16.52-0.2 21.77 2.03q2.87 1.23 5.71 2.52c29.41 13.36 59.87 24.68 89.79 36.83 14.91 6.06 29.77 12.34 44.38 19.08 15.39 7.09 31.68 15.73 49.17 11.5 12.56-3.04 18.65-17.58 16.54-29.43-0.82-4.62-4.77-16.21-11.74-14.56-1.33 0.32 3.36 4.08 3.71 4.39 3.15 2.81 6.33 5.42 8.73 8.96 5.15 7.6 3.28 18.57 8.79 25.29 2.72 3.32 8.15 4.5 11.89 6.29 5.9 2.82 8.17 8.86 12.82 13.46 0 0 0 0 0.3 5.15-0.61 1.35 7.91 8.04 8.63 9.15 4.82 7.41 9.09 15.16 13.58 22.77 15.27 25.89 35.02 56.6 38.22 87.46-6.82 5.09-21.04-0.3-28.48-2.53-21.12-6.31-40.42-25.19-57.86-38.11-6.35-4.71-17.23-14.37-25.88-13.52-9.55 0.93 1.85 14.86 4.57 17.24 12.94 11.36 31.06 14.73 46.13 22.42 19.94 10.18 39.41 24.64 62.71 24.79 10.81 0.07 21.43-3.18 31.83-5.8 3.2-0.81 9.5-2.55 11.59 1.24 2.54 4.62-3.11 9.98-6.01 12.65-9.77 9.01-19.94 17.43-28.69 27.49-19.17 22.03-27.43 50.45-35.3 77.99-6.4 22.4-11.86 46.63-10.93 70.07 0.28 7.27 2.35 26.19 14.34 17.21 13.18-9.89 9.35-25.68 10.7-39.41 0.41-4.21 2.53-10.95 7.92-8.8 6.8 2.72 5.72 13.38 3.86 18.82-4.51 13.13-20.78 25.03-33.92 27.38-19.56 3.5-42.59-9.55-60.99-14.86-41.41-11.93-84.82-11.38-124.07-31.91-17.91-9.38-40.19-25.53-39.75-48.39 0.19-10.58 9.19-13.12 13.63-3.57 9.04 19.42 9.88 40.01 25.54 56.49 16.3 17.15 38.74 15.41 60.19 18.74 11.08 1.72 20.99 5.81 31.04 10.58 0.03 2.05 3.25 1.97 4.86 2.42 5.84 1.63 11.65 3.37 17.49 4.99 14.42 3.99 29.04 6.72 43.35 11.21 6.92 2.17 15.54 4.98 19.41 11.68 13.75 23.77 8.36 54.71 14.61 80.6 4.79 19.87 17.23 35.89 24.84 54.55 7.95 19.51 32.26 31.53 31.85 52.27-0.16 8.01 0.85 18.16-4.08 25.06-6.51 9.1-19.7 12.59-29.87 15.44-2.34 4.23-13.81 7.04-17.85 8.89-21.92 10.04-46.09 14.64-69.94 17.15-90.79 9.55-204.16-17.4-282-60.08z"/>
		</clipPath>
		<clipPath clipPathUnits="userSpaceOnUse" id="cp5">
			<path d="m613 1042h319v307h-319z"/>
		</clipPath>
		<clipPath clipPathUnits="userSpaceOnUse" id="cp6">
			<path d="m648.14 1208.05c-12.55-4.76-24.05-8.01-32.03 6.61-5.94 10.87-2.03 24.7 3.86 34.75 11.92 20.35 31.69 36 55.99 29.86 7.48-1.9 7.45-10.59 0.64-13.48-5.45-2.31-10.23 2.09-15.39 2.86-9.65 1.43-20.68-5.43-26.04-12.99-13.9-19.6-1.52-44.57 23.75-38.67 11.54 2.69 19.55 12.57 25.58 22.18 11.86 18.89 19.19 39.87 33.12 57.59 32.14 40.9 93.25 56.55 143.22 50.81 29.59-3.39 58.01-16.82 67.8-47.03 7.2-22.22 0.26-45.18-1.91-67.62-2.36-24.46-10.25-59.11-17.19-82.96-8.27-28.39-19.01-40.42-35.28-64.19-11.6-16.93-19.58-39.41-35.01-53.34-10.06-9.1-24.59-13.91-37.84-15.54-8.08-0.99-16.25-1.07-24.36-0.5-11.98 0.84-24.22 2.96-35.56 6.98-67.1 23.83-59.56 109.86-54.95 167.36 1.19 14.85 4.88 28.59 14.24 40.45 3.97 5.05 8.57 8.87 13.69 12.66 0.93 0.69 3.46 3.29 1.68 4.45-4.76 3.14-15.02-5.87-17.66-8.7-12.37-13.21-30.94-24.93-50.35-31.54z"/>
		</clipPath>
		<clipPath clipPathUnits="userSpaceOnUse" id="cp7">
			<path d="m941 1338h781v398h-781z"/>
		</clipPath>
		<clipPath clipPathUnits="userSpaceOnUse" id="cp8">
			<path d="m971.11 1617.83c4.52 30.08-44.13 93.76-24.84 108.26 34.07 25.6 192.57-7.17 247.45-21.38 103.04-26.68 179.85-65.91 282.87-176.08 19.69-21.05 69.61-44.92 83.83-70.15q0 0.01 0 0.01c-0.42-0.12 0.17-2.07 0.22-2.37 0.45-2.78 0.61-5.58 0.63-8.4 0.08-7.64 0.37-16.06-1.2-23.56-1.84-8.8-9.11-13.4-12.53-21.15-0.99-2.23-1.59-7.28 1.9-7.66 4.08-0.44 7.76 4.09 9.97 6.84 7.9 9.8 9.27 20.82 8.17 32.98-0.36 3.96-2.32 13.71 4.1 13.9 4.57 0.14 8.86-2.79 12.41-5.31 8.19-5.8 15.54-12.8 22.98-19.5 13.85-12.5 29.03-24.58 46.14-32.29 13.37-6.02 28.26-8.75 41.19-15.66 8.23-4.39 21.8-14.84 20.49-25.78-1.05-8.7-14.41-7.93-20.62-7.27-20.56 2.19-38.33 14.24-53.45 27.57-2.67 2.36-14.19 12.24-17.99 6.27-1.53-2.4 1.24-5.18 3.05-6.36 5.66-3.73 12.46-5.73 18.48-8.83 12.36-6.37 23.58-13.59 37.49-16.22 8.79-1.66 20.24 1.63 28.43-1.91 4.35-1.89 4.7-8.24 4.01-12.21-2.33-13.34-14.02-18.91-26.73-17.92-19.61 1.53-35.42 14.64-54.03 19.67-6.31 1.71-13.14 3.06-19.71 2.72-2.1-0.1-5.67-0.23-6.88-2.35-1.51-2.67 2.4-4.38 4.23-5.12 6.44-2.59 13.7-3.37 20.56-3.98 12.71-1.12 25.38-1.11 37.98-3.42 9.88-1.82 19.01-5.49 28.66-8.05 7.65-2.02 19.97-3.65 20.42-13.76 0.63-14.24-13.89-25.26-26.89-26.28-11.34-0.88-22.2 2.79-32.88 6.09-14.38 4.46-42.15 20.59-37.99 23.46 1.41 0.97 20.94-10.34 31.08-15.89 17.93-9.83 35.77-19.15 56.01-23.17 9.8-1.95 19.85-0.99 29.7-2.3 7.65-1.02 18.98-7.21 14.41-16.86-2.84-5.97-10.32-8.33-16.29-9.42-14.45-2.63-29.82-1.01-44.26 0.77-34.26 4.22-75.82 10.04-101.14 35.99-11.15 11.44-17.85 26.87-24.35 41.25 0.2 0.14-4.04 6.26-4.3 6.63-5.41 7.88-11.79 15.17-18.03 22.4-26.55 30.8-63.74 48.31-99.6 66.02-78.18 38.6-156.57 77.85-239.31 105.91-40.29 13.66-82.19 28.34-125.12 30.1-18.17 0.75-34.55-4.95-52.3-6.69-0.79 2.92-61.16 48.84-56.42 80.46z"/>
		</clipPath>
		<clipPath clipPathUnits="userSpaceOnUse" id="cp9">
			<path d="m1619 1233h135v68h-135z"/>
		</clipPath>
		<clipPath clipPathUnits="userSpaceOnUse" id="cp10">
			<path d="m971.11 1617.83c4.52 30.08-44.13 93.76-24.84 108.26 34.07 25.6 192.57-7.17 247.45-21.38 103.04-26.68 179.85-65.91 282.87-176.08 19.69-21.05 69.61-44.92 83.83-70.15q0 0.01 0 0.01c-0.42-0.12 0.17-2.07 0.22-2.37 0.45-2.78 0.61-5.58 0.63-8.4 0.08-7.64 0.37-16.06-1.2-23.56-1.84-8.8-9.11-13.4-12.53-21.15-0.99-2.23-1.59-7.28 1.9-7.66 4.08-0.44 7.76 4.09 9.97 6.84 7.9 9.8 9.27 20.82 8.17 32.98-0.36 3.96-2.32 13.71 4.1 13.9 4.57 0.14 8.86-2.79 12.41-5.31 8.19-5.8 15.54-12.8 22.98-19.5 13.85-12.5 29.03-24.58 46.14-32.29 13.37-6.02 28.26-8.75 41.19-15.66 8.23-4.39 21.8-14.84 20.49-25.78-1.05-8.7-14.41-7.93-20.62-7.27-20.56 2.19-38.33 14.24-53.45 27.57-2.67 2.36-14.19 12.24-17.99 6.27-1.53-2.4 1.24-5.18 3.05-6.36 5.66-3.73 12.46-5.73 18.48-8.83 12.36-6.37 23.58-13.59 37.49-16.22 8.79-1.66 20.24 1.63 28.43-1.91 4.35-1.89 4.7-8.24 4.01-12.21-2.33-13.34-14.02-18.91-26.73-17.92-19.61 1.53-35.42 14.64-54.03 19.67-6.31 1.71-13.14 3.06-19.71 2.72-2.1-0.1-5.67-0.23-6.88-2.35-1.51-2.67 2.4-4.38 4.23-5.12 6.44-2.59 13.7-3.37 20.56-3.98 12.71-1.12 25.38-1.11 37.98-3.42 9.88-1.82 19.01-5.49 28.66-8.05 7.65-2.02 19.97-3.65 20.42-13.76 0.63-14.24-13.89-25.26-26.89-26.28-11.34-0.88-22.2 2.79-32.88 6.09-14.38 4.46-42.15 20.59-37.99 23.46 1.41 0.97 20.94-10.34 31.08-15.89 17.93-9.83 35.77-19.15 56.01-23.17 9.8-1.95 19.85-0.99 29.7-2.3 7.65-1.02 18.98-7.21 14.41-16.86-2.84-5.97-10.32-8.33-16.29-9.42-14.45-2.63-29.82-1.01-44.26 0.77-34.26 4.22-75.82 10.04-101.14 35.99-11.15 11.44-17.85 26.87-24.35 41.25 0.2 0.14-4.04 6.26-4.3 6.63-5.41 7.88-11.79 15.17-18.03 22.4-26.55 30.8-63.74 48.31-99.6 66.02-78.18 38.6-156.57 77.85-239.31 105.91-40.29 13.66-82.19 28.34-125.12 30.1-18.17 0.75-34.55-4.95-52.3-6.69-0.79 2.92-61.16 48.84-56.42 80.46z"/>
		</clipPath>
	</defs>
	<style>
		.s0 { fill: #1d99e0 } 
		.s1 { fill: #1c87c4 } 
		.s2 { fill: #ffffff } 
		.s3 { fill: #0d0d0d } 
		.s4 { fill: #2f2258 } 
		.s5 { fill: #89c2d3 } 
		.s6 { fill: #476e7a } 
		.s7 { fill: #1975a9 } 
		.s8 { fill: #15498f } 
		.s9 { fill: #f2eadc } 
		.s10 { fill: #b5a486 } 
		.s11 { fill: #a6a27c } 
		.s12 { fill: #656245 } 
	</style>
	<path fill-rule="evenodd" class="s0" d="m1221.3 941.4c126 856.6 1154.8-234.8 1383.2 513.1 96.3 315.3-295.4 852-822.7 714.5-375.6-97.9-461.6 179.4-821.6 218-431.3 46.2-737.3-234.4-645.6-823.5 86-552.9 838.9-1083.1 906.7-622.1z"/>
	<path fill-rule="evenodd" class="s0" d="m1997.2 903.6c-23.7 14.9-45.8 50.2-50.4 67.4-16.7 62.2 25.7 113.4 77 142.4 46.3 26 102 41.1 155.1 32 83.7-14.3 156.2-65.7 241.6-23.9 79.9 39.2 103.8 127.7 152.2 194.8 18 24.9 51.7 52.1 75 16.8 54.6-82.3-39.5-166.7-59.3-240.8-22.5-84.1 13.8-180.8-51.7-253-34.8-38.4-89.7-44.5-138-35.7-76.3 13.9-148 53.8-225.6 59.4-56.5 4.1-119 4.7-175.9 40.6z"/>
	<path fill-rule="evenodd" class="s1" d="m2622.9 1393.5c-3.7 12.4-6.5 26.9 0.8 38.3 6.6 10.2 17.7 18.3 25 28.2 6.6 8.9 14 28 31.7 19.3 2.2-1.1 4.2-2.5 5.8-4.1 2.4-2.3 4.4-4.9 5.9-7.7 6.7-11.3 7.7-23.5 8.6-35.8 1.7-20.9 2.1-42.8-6.8-62.8-2.3-5.1-5.4-10-9.6-14.2-16.8-16.8-54.3 15.7-61.4 38.8z"/>
	<path fill-rule="evenodd" class="s0" d="m1258.6 2357.3c171.2 10.1 490.2 187.9 17.6 34.6-114.5-37.1-236.6 57-355.1 77.6-104.7 18.2-233.4 29.3-332.5-17.3-16.1-7.5-155-94.2-88.3-122.3 31.6-13.3 145.4 61.3 185.9 70.7 126.3 29.2 258.7 16.2 383.6-15.2 55-13.9 132.8-19.2 188.8-28.1z"/>
	<path fill-rule="evenodd" class="s0" d="m1576.6 709.6l16.3 16.4-19.1 19.1-16.4-16.4-7.6 7.6 16.4 16.4-19.1 19.1-16.4-16.4-59.4 59.4c12.4 25.8 7.8 57.7-13.5 79.1-27.2 27.1-71.2 27.1-98.3 0-27.1-27.1-27.1-71.2 0-98.3 21.3-21.4 53.2-25.9 79.1-13.6l123.8-123.8 32.8 32.8zm-192.5 110.6c-13.6 13.5-13.6 35.5 0 49.1 13.5 13.6 35.5 13.6 49.1 0 13.6-13.6 13.6-35.6 0-49.1-13.6-13.6-35.6-13.6-49.1 0z"/>
	<path fill-rule="evenodd" class="s0" d="m1912.5 534.4c7.2-12.1 20.3-19.6 34.4-19.6 14.1 0 27.1 7.5 34.3 19.6 36.3 61.5 93.4 158.2 130.2 220.4 7.3 12.4 7.4 27.6 0.3 40.1-7.1 12.4-20.3 20.1-34.6 20.1-73.2 0-187.3 0-260.4 0-14.3 0-27.6-7.7-34.7-20.1-7.1-12.5-6.9-27.7 0.3-40.1 36.8-62.2 93.9-158.9 130.2-220.4z"/>
	<path class="s2" d="m1960.9 718h-29.1l-3.2-117.7h35.7zm-33.3 36q0-6.6 5.1-10.9 5.2-4.3 14.1-4.3 8.9 0 14.1 4.3 5.1 4.3 5.1 10.9 0 6.3-5 10.5-5 4.3-14.2 4.3-9.2 0-14.2-4.3-5-4.2-5-10.5z"/>
	<path fill-rule="evenodd" class="s3" d="m2518.5 1010.9c8-26.9 2.8-55.9-13.9-78.3-16.8-22.5-43.1-35.7-71.2-35.7-193 0-568.2 0-720.6 0-39.5 0-74.2 26.1-85.2 64-79.5 274.9-387.5 1339.9-387.5 1339.9l903.6-132.8c8.3-3.3 19.4-8.7 36.7-19.5 0 0 246.4-828.9 338.1-1137.6z"/>
	<path fill-rule="evenodd" class="s4" d="m2471.7 1034.5c7.7-26.8 2.4-55.7-14.3-77.9-16.8-22.3-43.1-35.5-71-35.5-192.7 0-568.9 0-721.5 0-39.5 0-74.3 26.2-85.3 64.1-79.5 274.8-387.5 1339.8-387.5 1339.8 228-50.7 461.9-95.7 843.4-127.6 39.3-3.3 71.9-6.1 108.3-28.8 0 0 239-826.6 327.9-1134.1z"/>
	<g id="Clip-Path" clip-path="url(#cp1)">
		<g>
			<g id="Clip-Path" clip-path="url(#cp2)">
				<g>
					<path fill-rule="evenodd" class="s2" d="m2438.8 982.4c0.9-3.2 0.3-6.7-1.7-9.3-2-2.7-5.2-4.3-8.5-4.3-101.1 0-711.2 0-788.3 0-4.7 0-8.9 3.1-10.2 7.7-31.6 109.3-390 1348.5-390 1348.5h810.4c0 0 347.3-1200.9 388.3-1342.6z"/>
				</g>
			</g>
		</g>
	</g>
	<path fill-rule="evenodd" class="s5" d="m2186.3 1596.5c3.9-13.4 2.3-26.2-4.4-35.6-6.7-9.5-18-14.8-31.4-14.8-122.9 0-437 0-559.9 0-13.4 0-27.7 5.3-39.9 14.8-12.2 9.4-21.2 22.2-25.1 35.6q0 0 0 0c-3.9 13.4-2.3 26.2 4.5 35.7 6.7 9.4 18 14.7 31.3 14.7 123 0 437 0 560 0 13.3 0 27.7-5.3 39.9-14.7 12.2-9.5 21.2-22.3 25-35.7q0 0 0 0z"/>
	<path fill-rule="evenodd" class="s5" d="m2134.9 1774.4c3.9-13.3 2.2-26.2-4.5-35.6-6.7-9.5-18-14.8-31.3-14.8-123 0-437 0-560 0-13.3 0-27.7 5.3-39.9 14.8-12.2 9.4-21.2 22.3-25 35.6q0 0-0.1 0c-3.8 13.4-2.2 26.2 4.5 35.7 6.7 9.4 18 14.7 31.4 14.7 122.9 0 437 0 559.9 0 13.4 0 27.7-5.3 39.9-14.7 12.2-9.5 21.2-22.3 25.1-35.7q0 0 0 0z"/>
	<path fill-rule="evenodd" class="s6" d="m2049.5 1924.4c2.5-8.7 1.5-17.1-2.9-23.3-4.4-6.1-11.7-9.6-20.4-9.6-50.1 0-144.8 0-194.9 0-8.7 0-18 3.5-26 9.6-7.9 6.2-13.8 14.6-16.3 23.3-2.6 8.7-1.5 17.1 2.9 23.2 4.3 6.2 11.7 9.6 20.4 9.6 50.1 0 144.8 0 194.8 0 8.8 0 18.1-3.4 26.1-9.6 7.9-6.1 13.8-14.5 16.3-23.2z"/>
	<path fill-rule="evenodd" class="s5" d="m1761.1 1924.4c5.3-18.2-5.2-32.9-23.3-32.9-15.4 0-33.6 0-49 0-18.2 0-37.1 14.7-42.4 32.9-5.2 18.1 5.2 32.8 23.4 32.8 15.4 0 33.6 0 49 0 18.1 0 37.1-14.7 42.3-32.8z"/>
	<path fill-rule="evenodd" class="s4" d="m1984.4 1152.4c87.3 0 137.6 70.8 112.4 158-25.2 87.3-116.6 158.1-203.8 158.1-87.3 0-137.6-70.8-112.4-158.1 25.3-87.2 116.6-158 203.8-158z"/>
	<path fill-rule="evenodd" class="s2" d="m2018.5 1221.6c12.9-9.8 27.3-9.8 32 0q0 0 0 0c4.7 9.9-1.9 25.8-14.8 35.7-27.7 21.1-70.2 53.4-70.2 53.4 0 0 15.6 32.4 25.7 53.5 4.7 9.9-1.9 25.8-14.8 35.7-12.9 9.8-27.2 9.8-32 0-10.1-21.2-25.7-53.5-25.7-53.5 0 0-43.2 32.9-70.8 54-12.6 9.5-26.4 9.5-31 0q-0.3-0.5-0.5-1.1c-4.6-9.5 1.8-25 14.3-34.5 27.7-21.1 70.9-54.1 70.9-54.1 0 0-15.7-32.5-25.8-53.6-2.3-4.7-2-11 0.8-17.7 2.7-6.5 7.7-12.9 13.8-17.6q0.3-0.2 0.6-0.4c6.1-4.7 12.9-7.3 18.8-7.3 5.9 0 10.5 2.6 12.8 7.3 10.1 21.1 25.8 53.7 25.8 53.7 0 0 42.4-32.4 70.1-53.5z"/>
	<path fill-rule="evenodd" class="s4" d="m2027.9 1002.1c12.3 0 19.4 10 15.9 22.3-3.6 12.4-16.5 22.4-28.8 22.4-12.4 0-19.5-10-15.9-22.4 3.5-12.3 16.5-22.3 28.8-22.3z"/>
	<path fill-rule="evenodd" class="s7" d="m1776.3 1116.5c0-11.3-4.5-22.1-12.4-30-8-8-18.8-12.4-30-12.4-126.4 0-499 0-625.3 0-11.2 0-22 4.4-30 12.4-8 7.9-12.5 18.8-12.5 30 0 14.1 0 29.8 0 43.8 0 11.3 4.5 22.1 12.5 30.1 8 7.9 18.8 12.4 30 12.4 126.3 0 498.9 0 625.3 0 11.2 0 22-4.5 30-12.4 7.9-8 12.4-18.8 12.4-30.1 0-14 0-29.7 0-43.8z"/>
	<path fill-rule="evenodd" class="s1" d="m1770.4 1104.8c0-11.3-4.5-22.1-12.4-30.1-8-7.9-18.8-12.4-30-12.4-126.4 0-498.9 0-625.3 0-11.2 0-22 4.5-30 12.4-8 8-12.4 18.8-12.4 30.1 0 14 0 29.7 0 43.8 0 11.3 4.4 22 12.4 30 8 8 18.8 12.5 30 12.5 126.4 0 498.9 0 625.3 0 11.2 0 22-4.5 30-12.5 7.9-8 12.4-18.7 12.4-30 0-14.1 0-29.8 0-43.8z"/>
	<path fill-rule="evenodd" class="s2" d="m1174.2 1159.4l-10.4-7.5 15.1-20.8-24.4-8 3.9-12.2 24.5 8v-25.7h12.9v25.7l24.4-8 4 12.2-24.5 8 15.1 20.8-10.4 7.5-15.1-20.8z"/>
	<path fill-rule="evenodd" class="s2" d="m1276.2 1159.4l-10.4-7.5 15.1-20.8-24.5-8 4-12.2 24.4 8v-25.7h12.9v25.7l24.4-8 4 12.2-24.4 8 15.1 20.8-10.4 7.5-15.1-20.8z"/>
	<path fill-rule="evenodd" class="s2" d="m1378.1 1159.4l-10.4-7.5 15.1-20.8-24.4-8 3.9-12.2 24.5 8v-25.7h12.8v25.7l24.5-8 4 12.2-24.5 8 15.1 20.8-10.4 7.5-15.1-20.8z"/>
	<path fill-rule="evenodd" class="s2" d="m1480 1159.4l-10.4-7.5 15.2-20.8-24.5-8 4-12.2 24.4 8v-25.7h12.9v25.7l24.4-8 4 12.2-24.4 8 15.1 20.8-10.4 7.5-15.2-20.8z"/>
	<path fill-rule="evenodd" class="s2" d="m1582 1159.4l-10.4-7.5 15.1-20.8-24.5-8 4-12.2 24.5 8v-25.7h12.8v25.7l24.5-8 3.9 12.2-24.4 8 15.1 20.8-10.4 7.5-15.1-20.8z"/>
	<path fill-rule="evenodd" class="s8" d="m658.9 2362.8c-33.6-8.4-154.3-79.9-151.4-86.7 9.9-22.4 19.9-47.1 29.9-69.6 28.9-65.2 40-129 52.5-198.5 4.4-24.4 11.9-57.4 40-64.2 26.7-6.5 52 11.3 74.1 23.4 32 17.4 65.2 32.7 101.6 38.2 49.5 7.4 95.4-4.6 140.6-23.5 7.9-3.3 34.8-15.5 39.9-2.3 3.6 9.5 15.8 99.7 21.1 123 6.5 28.6 21.1 61.6 21.1 90.6 0 38.1-3.7 74.6-1.9 112.3 1.4 29.8-17 78.8-54.1 86-20.5 3.9-42.5 3.7-63.4 5.2-5.9 0.4-18.4 1-22.7-4.6-5.9-7.8 20.8-38 24.2-44.6 19.6-37.8 11.5-32.3-20.8 20.7-22.8 37.3-69.8 33.8-107.1 26.8-41.9-7.8-82.3-21.8-123.6-32.2z"/>
	<path fill-rule="evenodd" class="s2" d="m596.9 1948.1c3-4.2-0.8-21.1-1.1-26-1.3-22-2.8-44.3-1.8-66.3-1.2-0.6 1.1-7.2 1.3-8.2 1.6-8.2 2.6-16.5 3.1-24.8 1.3-22.7 0.6-44.1-5-66.1-24.2-93.6-41.6-185.5-17.4-281.4 7.6-30 22.9-80.3 52.6-97.2 19.2-10.9 47.2 10.8 63.1 19.4 43.8 23.4 90.4 49.4 140.3 56.3 8.7 1.2 17.5 1.6 26.3 1.1 6.1-0.4 12.5-1.1 18.2-3.7 4.6-2.2 8.1-5.4 10.7-9.8 2.3-3.8 3.5-8.1 3.8-12.6 0.2-3 0.1-6.1-0.4-9.1-1.1-6.2-9.1-17.1-13.1-6.3-2.2 6.1-0.7 12.5 1.5 18.3-17.9 14.1-43.4 11.6-64.2 5.7-38.6-10.8-72.7-31-108.3-48.6-11.5-5.6-23.6-10.7-35.9-14.1-6.3-1.8-15.9-2-20.3-7.5-6.3-7.9-5-22.2-4.2-31.6 0.6-6.2 1.4-12.9 3.6-18.8 3.1-8.2 16.6-0.2 21.8 2q2.9 1.3 5.7 2.6c29.4 13.3 59.9 24.6 89.8 36.8 14.9 6.1 29.8 12.3 44.4 19.1 15.4 7.1 31.7 15.7 49.2 11.5 12.5-3.1 18.6-17.6 16.5-29.5-0.8-4.6-4.8-16.2-11.7-14.5-1.4 0.3 3.3 4.1 3.7 4.4 3.1 2.8 6.3 5.4 8.7 8.9 5.1 7.6 3.3 18.6 8.8 25.3 2.7 3.3 8.1 4.5 11.9 6.3 5.9 2.8 8.1 8.9 12.8 13.5 0 0 0 0 0.3 5.1-0.6 1.4 7.9 8.1 8.6 9.2 4.8 7.4 9.1 15.1 13.6 22.7 15.3 25.9 35 56.6 38.2 87.5-6.8 5.1-21-0.3-28.5-2.5-21.1-6.3-40.4-25.2-57.8-38.1-6.4-4.7-17.3-14.4-25.9-13.6-9.5 1 1.9 14.9 4.6 17.3 12.9 11.3 31 14.7 46.1 22.4 19.9 10.2 39.4 24.6 62.7 24.8 10.8 0.1 21.4-3.2 31.8-5.8 3.2-0.8 9.5-2.6 11.6 1.2 2.6 4.7-3.1 10-6 12.7-9.7 9-19.9 17.4-28.7 27.5-19.1 22-27.4 50.4-35.3 78-6.4 22.4-11.8 46.6-10.9 70 0.3 7.3 2.4 26.2 14.3 17.2 13.2-9.9 9.4-25.6 10.7-39.4 0.5-4.2 2.6-10.9 8-8.8 6.8 2.8 5.7 13.4 3.8 18.8-4.5 13.2-20.8 25.1-33.9 27.4-19.6 3.5-42.6-9.5-61-14.8-41.4-12-84.8-11.4-124.1-31.9-17.9-9.4-40.1-25.6-39.7-48.4 0.2-10.6 9.2-13.1 13.6-3.6 9.1 19.4 9.9 40 25.6 56.5 16.3 17.1 38.7 15.4 60.2 18.7 11 1.8 20.9 5.8 31 10.6 0 2.1 3.2 2 4.9 2.4 5.8 1.7 11.6 3.4 17.4 5 14.5 4 29.1 6.7 43.4 11.2 6.9 2.2 15.5 5 19.4 11.7 13.8 23.8 8.4 54.7 14.6 80.6 4.8 19.9 17.2 35.9 24.8 54.6 8 19.5 32.3 31.5 31.9 52.2-0.2 8 0.8 18.2-4.1 25.1-6.5 9.1-19.7 12.6-29.8 15.4-2.4 4.3-13.9 7.1-17.9 8.9-21.9 10.1-46.1 14.7-69.9 17.2-90.8 9.5-204.2-17.4-282-60.1z"/>
	<g id="Clip-Path" clip-path="url(#cp3)">
		<g>
			<g id="Clip-Path" clip-path="url(#cp4)">
				<g>
					<path fill-rule="evenodd" class="s2" d="m948.3 2017.9c6.8-11.3 3.9-34.3 3.4-46.5-0.5-12.7-1.2-25.8-5.4-37.9-10-29-35.2-48.9-57-68.9-22.8-21-45.7-41.5-69-61.9-15.7-13.7-30.5-28.4-45.2-43.1-21.3-21.2-79.9-71.7-60.1-122.8 1.1-2.6 14.1 28 14.6 28.8 5.5 8.4 11.4 17.5 18.3 24.8 16.2 17 40.8 18.5 63 22.9 37.9 7.6 83.1 12.4 117.9 30.3 27.3 14 49.3 38.3 66 63.7 34.6 52.5 75.1 170.5-46.5 210.6z"/>
				</g>
			</g>
		</g>
	</g>
	<path fill-rule="evenodd" class="s9" d="m648.1 1208.1c-12.5-4.8-24-8.1-32 6.6-5.9 10.8-2 24.7 3.9 34.7 11.9 20.4 31.7 36 56 29.9 7.4-1.9 7.4-10.6 0.6-13.5-5.5-2.3-10.2 2.1-15.4 2.8-9.6 1.5-20.7-5.4-26-12.9-13.9-19.6-1.6-44.6 23.7-38.7 11.6 2.7 19.6 12.6 25.6 22.2 11.9 18.9 19.2 39.8 33.1 57.6 32.2 40.9 93.3 56.5 143.2 50.8 29.6-3.4 58-16.8 67.8-47.1 7.2-22.2 0.3-45.1-1.9-67.6-2.3-24.4-10.2-59.1-17.2-82.9-8.2-28.4-19-40.5-35.2-64.2-11.6-17-19.6-39.4-35-53.4-10.1-9.1-24.6-13.9-37.9-15.5-8.1-1-16.2-1.1-24.4-0.5-11.9 0.8-24.2 3-35.5 7-67.1 23.8-59.6 109.8-55 167.3 1.2 14.9 4.9 28.6 14.3 40.5 4 5 8.5 8.9 13.7 12.6 0.9 0.7 3.4 3.3 1.7 4.5-4.8 3.1-15.1-5.9-17.7-8.7-12.4-13.2-30.9-24.9-50.4-31.5z"/>
	<g id="Clip-Path" clip-path="url(#cp5)">
		<g>
			<g id="Clip-Path" clip-path="url(#cp6)">
				<g>
					<path fill-rule="evenodd" class="s10" d="m875.2 1062.8c-0.4 0.1-1.5 10.1-1.7 11-1.8 8.6-4.6 18.9-14.2 21.1-7.6 1.7-16.7-0.5-24.2-1.8-13.9-2.3-27.6-5.2-41.8-4.3-11.2 0.7-22.3 3.2-32.7 7.5-8.2 3.4-16.9 7.9-23 14.6-5.1 5.7-9 13-11.4 20.2-5.2 15.3-8.8 34.7 0.5 48.4 32 46.9-5.2 88.5 32.4 102.2 66 23.8 61.4 43.8 118.6 34.3 57.3-9.4 70.5-39 70.5-39 0 0 7.3 31.9 1.3 44.8-16.6 35.6-51.9 49.1-89.4 49.1-92.5 0.1-260-75.9-259.3-173.1 1.9-15.7 84.2 25.9 80.8 16.1-13.3-38-24.2-74.9-11-100.5 32.2-62.5 127.5-94.2 204.6-50.6z"/>
				</g>
			</g>
		</g>
	</g>
	<path fill-rule="evenodd" class="s3" d="m703.5 1106.3c32-4.2 50.8-40.5 82.7-47.5 11.8-2.6 25.9-3.7 37.1 1.6 14.9 7 25.2 21 42.6 23.2 28 3.6 21.8-31.7 13.6-45.9-4.4-7.7-10.5-14-17.1-20.1-1.8-1.7 11.3-19.6 12.5-23.2 5.7-17.7 5.6-39-3.8-55.5-14.2-24.9-41-37.5-69.2-42.8-61.1-11.4-128.4 19.2-164.9 66-6.4-9.6-19.7-8.6-29.9-5.5-23.8 7.2-39.4 26.4-49.6 47.3-24.5 50.7-8.2 106.8 26.6 148.4 1.4 1.7-67.2 8.5-91.2 57.3-20.6 42.1-7.3 96.5 28.4 123.7-2.4-2.3-12.2 4.8-13.9 6-174.8 122.9 55.4 295.6 49.6 266.7-7.7-39 8-101 7.5-116.1-0.6-20.8 7.4-39.5 15.1-58.9 10.9-27.6 31.9-49 50.1-76.3 7.4-11.1 3.6-29.4 11.8-38.6 8.5-9.6 27.9 15.1 31.4-0.5 2.9-13.1-17.1-19.1-26.2-23.2-19-8.6-34.7-22.4-38.8-42.9-1.3-6.7-1.3-14.1 0.1-20.8 3.3-16.7 15.7-37.9 35.8-26.6 6.1 3.4 21.6 21.5 28.5 11.8 5.3-7.5 1.4-21.5 0.4-29.7-2.6-20.6 15.5-60.6 30.8-77.9z"/>
	<path fill-rule="evenodd" class="s11" d="m680.6 1245.8c-4.3-11-11.3-18.3-23.8-20.3-8.6-1.3-20.6 3.1-19.4 13.6q0.2 2.1 1.1 4c7 14.5 26.7 8 38.5 13.8 4.4 2.2 7.2 5.6 9.8 9.7 1.3 2 3.2 5.8 5.9 6.5 3.3 0.8 2-5.5 1.6-6.9q-0.3-0.8-0.6-1.7c-3.2-8.4-8.6-10.9-13.1-18.7z"/>
	<path fill-rule="evenodd" class="s12" d="m692.4 1288.9c-0.8 1 0.5 6.3 0.6 7.5 0.4 6 0.4 11.7-0.9 17.6-0.5 2.3-2 5.9 0.3 7.8 4.2 3.6 12.1 9.1 17.2 9.8 10.1 1.3 20 3.4 29.6 6.7 25.5 8.9 46.7 21.3 71.4 31.9 2.4 1.1 4.9 2.1 7.4 3.1 7.9 3.2 27.9 12.9 33.5 1 1.1-2.3 1.3-5.2 1.3-7.8-0.1-2.6 0.1-9.3-1.9-11.4-2-2-7.9-0.9-10.3-0.7-9 0.7-17.9 1.6-26.9 0.5-18.3-2.1-36.9-9.8-53.1-18.5-22.9-12.3-40-26.5-56.9-45.5-6.2-7-14.3-14.3-11.3-2z"/>
	<path fill-rule="evenodd" class="s9" d="m971.1 1617.8c4.5 30.1-44.1 93.8-24.8 108.3 34 25.6 192.5-7.2 247.4-21.4 103.1-26.7 179.9-65.9 282.9-176.1 19.7-21 69.6-44.9 83.8-70.1q0 0 0 0c-0.4-0.1 0.2-2.1 0.2-2.4 0.5-2.8 0.6-5.6 0.7-8.4 0.1-7.6 0.3-16-1.2-23.5-1.9-8.8-9.1-13.4-12.6-21.2-0.9-2.2-1.6-7.3 1.9-7.6 4.1-0.5 7.8 4 10 6.8 7.9 9.8 9.3 20.8 8.2 33-0.4 3.9-2.3 13.7 4.1 13.9 4.5 0.1 8.8-2.8 12.4-5.3 8.2-5.8 15.5-12.8 23-19.5 13.8-12.5 29-24.6 46.1-32.3 13.4-6.1 28.3-8.8 41.2-15.7 8.2-4.4 21.8-14.8 20.5-25.8-1.1-8.7-14.4-7.9-20.6-7.2-20.6 2.1-38.4 14.2-53.5 27.5-2.7 2.4-14.2 12.3-18 6.3-1.5-2.4 1.3-5.2 3.1-6.4 5.6-3.7 12.4-5.7 18.5-8.8 12.3-6.4 23.5-13.6 37.5-16.2 8.7-1.7 20.2 1.6 28.4-1.9 4.3-1.9 4.7-8.3 4-12.2-2.3-13.4-14-18.9-26.7-18-19.7 1.6-35.5 14.7-54.1 19.7-6.3 1.7-13.1 3.1-19.7 2.7-2.1-0.1-5.7-0.2-6.9-2.3-1.5-2.7 2.4-4.4 4.3-5.1 6.4-2.6 13.7-3.4 20.5-4 12.7-1.1 25.4-1.1 38-3.4 9.9-1.8 19-5.5 28.7-8.1 7.6-2 19.9-3.6 20.4-13.7 0.6-14.3-13.9-25.3-26.9-26.3-11.3-0.9-22.2 2.8-32.9 6.1-14.4 4.4-42.1 20.6-38 23.4 1.4 1 21-10.3 31.1-15.9 17.9-9.8 35.8-19.1 56-23.1 9.8-2 19.9-1 29.7-2.3 7.7-1 19-7.2 14.4-16.9-2.8-6-10.3-8.3-16.3-9.4-14.4-2.6-29.8-1-44.2 0.8-34.3 4.2-75.8 10-101.2 36-11.1 11.4-17.8 26.8-24.3 41.2 0.2 0.1-4.1 6.3-4.3 6.6-5.4 7.9-11.8 15.2-18 22.4-26.6 30.8-63.8 48.3-99.6 66.1-78.2 38.5-156.6 77.8-239.4 105.9-40.2 13.6-82.1 28.3-125.1 30.1-18.1 0.7-34.5-5-52.3-6.7-0.8 2.9-61.1 48.8-56.4 80.4z"/>
	<g id="Clip-Path" clip-path="url(#cp7)">
		<g>
			<g id="Clip-Path" clip-path="url(#cp8)">
				<g>
					<path fill-rule="evenodd" class="s10" d="m1718.8 1338.3c-0.8 3.8-4.9 8.4-7.1 11.3-7.1 9.5-18.6 17.8-30.3 20.3-10 2.2-20 1-29.6 5.6-13 6.2-21.4 18.4-33.7 25.7-9 5.5-20.6 8.1-30.8 4.7-8.1-2.7-14.9-8.7-19.2-16-2.4-3.9-3.3-8.2-4.7-12.6-0.4-1.3-0.8-4.2-2.3-4.8-1.9-1-6.2 0.8-8 1.4q-2.6 1-4.9 2.7c-2.2 1.6-3.9 3.7-5.5 5.9-2.5 3.3-3.7 6.9-4.4 10.9-0.9 5.4 0.9 10.6 2.1 15.9 2.2 9.9 4.2 19.6 3.4 29.8 1-1.3-2.7 2.1-3.8 3.4-2.2 2.8-4.5 5.6-7 8.2-7.1 7.8-14.8 15.2-22 23-21.2 22.7-49.4 39.3-75.5 55.5-33.2 20.7-64.7 44.5-99 63.4-51.5 28.5-105.9 49.2-162.8 64.1-22 5.8-44.4 10.7-67 13.8-15.2 2.1-30.7 3.2-46.1 4.1-9.4 0.5-18.9 0.3-28.3-1.2-5.5-0.9-10.9-2.6-16.2-4.4-73-25.3 15.7-137.2 15.7-137.2 0 0-161.5 78.1-106.5 184.4 27.1 52.4 110.6 46.9 159.6 42.9 14-1.2 28-2.7 42-4.8 15.6-2.2 31.1-5.1 46.5-8.5 185.2-41 343.4-156.2 468.1-295.4 25-27.9 95.5-71 77.3-112.1z"/>
				</g>
			</g>
		</g>
	</g>
	<g id="Clip-Path" clip-path="url(#cp9)">
		<g>
			<g id="Clip-Path" clip-path="url(#cp10)">
				<g>
					<path fill-rule="evenodd" class="s12" d="m1734.3 1225c1.1-1 4.7 5.4 5.1 6.1 3.2 5.8 4.9 13.2-2 17.1-10.3 5.9-25.4 3.8-36.8 5.8-20.4 3.6-40.5 10.5-58.5 20.7-2 1.2-4 2.4-6 3.6q-2.4 1.6-4.7 3.4-1.7 1.2-3.3 2.7c-3.2 2.7-11 10.8-7.9 16 0.7 1.1 3.1-1 3.7-1.3 3.9-2.6 7.5-5.4 11.6-7.7 10.2-5.7 21.4-10.4 32.6-13.8 12.8-3.9 25.8-8.2 39.2-9.4 14.4-1.3 28.8 0.9 42.6-4.8 10.6-4.3 19.6-16.4 12-27.4-1.9-2.9-24.7-9.3-27.6-11z"/>
				</g>
			</g>
		</g>
	</g>
</svg>